{
    "accessors" : [
        {
            "bufferView" : 0, 
            "componentType" : 5121, 
            "count" : 30, 
            "max" : [
                27
            ], 
            "min" : [
                0
            ], 
            "type" : "SCALAR"
        }, 
        {
            "bufferView" : 1, 
            "componentType" : 5126, 
            "count" : 28, 
            "max" : [
                0.042335979640483856, 
                0.013202070258557796, 
                0.038704268634319305
            ], 
            "min" : [
                -0.042335979640483856, 
                -0.013202070258557796, 
                -0.038704268634319305
            ], 
            "type" : "VEC3"
        }, 
        {
            "bufferView" : 2, 
            "componentType" : 5126, 
            "count" : 28, 
            "max" : [
                1.0, 
                1.0, 
                1.0
            ], 
            "min" : [
                -1.0, 
                0.0, 
                -1.0
            ], 
            "type" : "VEC3"
        }, 
        {
            "bufferView" : 3, 
            "componentType" : 5126, 
            "count" : 28, 
            "max" : [
                1.0, 
                5.1866368266928475e-06, 
                1.0, 
                1.0
            ], 
            "min" : [
                -1.0, 
                0.0, 
                -1.0, 
                1.0
            ], 
            "type" : "VEC4"
        }, 
        {
            "bufferView" : 4, 
            "componentType" : 5126, 
            "count" : 28, 
            "max" : [
                0.9248359799385071, 
                0.9384462311863899
            ], 
            "min" : [
                0.1476965993642807, 
                0.0026574134826660156
            ], 
            "type" : "VEC2"
        }, 
        {
            "bufferView" : 5, 
            "componentType" : 5121, 
            "count" : 36, 
            "max" : [
                23
            ], 
            "min" : [
                0
            ], 
            "type" : "SCALAR"
        }, 
        {
            "bufferView" : 6, 
            "componentType" : 5126, 
            "count" : 24, 
            "max" : [
                1.0, 
                1.0, 
                1.0
            ], 
            "min" : [
                -1.0, 
                -1.0, 
                -1.0
            ], 
            "type" : "VEC3"
        }, 
        {
            "bufferView" : 7, 
            "componentType" : 5126, 
            "count" : 24, 
            "max" : [
                1.0, 
                1.0, 
                1.0
            ], 
            "min" : [
                -1.0, 
                -1.0, 
                -1.0
            ], 
            "type" : "VEC3"
        }, 
        {
            "bufferView" : 8, 
            "componentType" : 5121, 
            "count" : 96, 
            "max" : [
                89
            ], 
            "min" : [
                0
            ], 
            "type" : "SCALAR"
        }, 
        {
            "bufferView" : 9, 
            "componentType" : 5126, 
            "count" : 90, 
            "max" : [
                0.6912097334861755, 
                0.769123911857605, 
                0.04106533154845238
            ], 
            "min" : [
                -0.7535759210586548, 
                -0.8308762311935425, 
                -0.06082748994231224
            ], 
            "type" : "VEC3"
        }, 
        {
            "bufferView" : 10, 
            "componentType" : 5126, 
            "count" : 90, 
            "max" : [
                1.0, 
                1.0, 
                1.0
            ], 
            "min" : [
                -1.0, 
                -1.0, 
                -1.0
            ], 
            "type" : "VEC3"
        }, 
        {
            "bufferView" : 11, 
            "componentType" : 5126, 
            "count" : 90, 
            "max" : [
                0.695044994354248, 
                1.0, 
                1.0, 
                1.0
            ], 
            "min" : [
                -0.6953300833702087, 
                -1.0, 
                -1.0, 
                1.0
            ], 
            "type" : "VEC4"
        }, 
        {
            "bufferView" : 12, 
            "componentType" : 5126, 
            "count" : 90, 
            "max" : [
                0.9492188096046448, 
                0.2753905653953552
            ], 
            "min" : [
                0.3164063096046448, 
                0.03125
            ], 
            "type" : "VEC2"
        }, 
        {
            "bufferView" : 13, 
            "componentType" : 5123, 
            "count" : 639, 
            "max" : [
                582
            ], 
            "min" : [
                0
            ], 
            "type" : "SCALAR"
        }, 
        {
            "bufferView" : 14, 
            "componentType" : 5126, 
            "count" : 583, 
            "max" : [
                2.002229928970337, 
                2.0, 
                1.1800650358200073
            ], 
            "min" : [
                -2.0011088848114014, 
                0.0, 
                -1.0017260313034058
            ], 
            "type" : "VEC3"
        }, 
        {
            "bufferView" : 15, 
            "componentType" : 5126, 
            "count" : 583, 
            "max" : [
                1.0, 
                1.0, 
                1.0
            ], 
            "min" : [
                -1.0, 
                -1.0, 
                -1.0
            ], 
            "type" : "VEC3"
        }, 
        {
            "bufferView" : 16, 
            "componentType" : 5126, 
            "count" : 583, 
            "max" : [
                1.0, 
                1.0, 
                1.0, 
                1.0
            ], 
            "min" : [
                -1.0, 
                -0.9785236716270447, 
                -1.0, 
                1.0
            ], 
            "type" : "VEC4"
        }, 
        {
            "bufferView" : 17, 
            "componentType" : 5126, 
            "count" : 583, 
            "max" : [
                0.9980469346046448, 
                1.0
            ], 
            "min" : [
                0.001953125, 
                0.002479374408721924
            ], 
            "type" : "VEC2"
        }, 
        {
            "bufferView" : 18, 
            "componentType" : 5121, 
            "count" : 30, 
            "max" : [
                27
            ], 
            "min" : [
                0
            ], 
            "type" : "SCALAR"
        }, 
        {
            "bufferView" : 19, 
            "componentType" : 5126, 
            "count" : 28, 
            "max" : [
                0.042335979640483856, 
                0.013202070258557796, 
                0.038704268634319305
            ], 
            "min" : [
                -0.042335979640483856, 
                -0.013202070258557796, 
                -0.038704268634319305
            ], 
            "type" : "VEC3"
        }, 
        {
            "bufferView" : 20, 
            "componentType" : 5126, 
            "count" : 28, 
            "max" : [
                1.0, 
                1.0, 
                1.0
            ], 
            "min" : [
                -1.0, 
                0.0, 
                -1.0
            ], 
            "type" : "VEC3"
        }, 
        {
            "bufferView" : 21, 
            "componentType" : 5126, 
            "count" : 28, 
            "max" : [
                1.0, 
                5.1866409194190055e-06, 
                1.0, 
                1.0
            ], 
            "min" : [
                -1.0, 
                0.0, 
                -1.0, 
                1.0
            ], 
            "type" : "VEC4"
        }, 
        {
            "bufferView" : 22, 
            "componentType" : 5126, 
            "count" : 28, 
            "max" : [
                0.9248359799385071, 
                0.9384462311863899
            ], 
            "min" : [
                0.1476965993642807, 
                0.0026574134826660156
            ], 
            "type" : "VEC2"
        }, 
        {
            "bufferView" : 23, 
            "componentType" : 5126, 
            "count" : 6, 
            "max" : [
                1.0416666666666667
            ], 
            "min" : [
                0.041666666666666664
            ], 
            "type" : "SCALAR"
        }, 
        {
            "bufferView" : 24, 
            "componentType" : 5126, 
            "count" : 18, 
            "max" : [
                2.074047088623047, 
                1.03740656375885, 
                2.35715913772583
            ], 
            "min" : [
                -2.6027534008026123, 
                0.0, 
                -2.1487197875976562
            ], 
            "type" : "VEC3"
        }, 
        {
            "bufferView" : 25, 
            "componentType" : 5126, 
            "count" : 25, 
            "max" : [
                1.0416666666666667
            ], 
            "min" : [
                0.041666666666666664
            ], 
            "type" : "SCALAR"
        }, 
        {
            "bufferView" : 26, 
            "componentType" : 5126, 
            "count" : 25, 
            "max" : [
                0.0, 
                0.0, 
                -0.0, 
                1.0
            ], 
            "min" : [
                0.0, 
                0.0, 
                -0.0, 
                1.0
            ], 
            "type" : "VEC4"
        }
    ], 
    "animations" : [
        {
            "channels" : [
                {
                    "sampler" : 0, 
                    "target" : {
                        "node" : 2, 
                        "path" : "translation"
                    }
                }, 
                {
                    "sampler" : 1, 
                    "target" : {
                        "node" : 2, 
                        "path" : "rotation"
                    }
                }
            ], 
            "samplers" : [
                {
                    "input" : 23, 
                    "interpolation" : "CUBICSPLINE", 
                    "output" : 24
                }, 
                {
                    "input" : 25, 
                    "interpolation" : "LINEAR", 
                    "output" : 26
                }
            ]
        }
    ], 
    "asset" : {
        "generator" : "Khronos Blender glTF 2.0 exporter", 
        "version" : "2.0"
    }, 
    "bufferViews" : [
        {
            "buffer" : 0, 
            "byteLength" : 30, 
            "byteOffset" : 0, 
            "target" : 34963
        }, 
        {
            "buffer" : 0, 
            "byteLength" : 336, 
            "byteOffset" : 32, 
            "target" : 34962
        }, 
        {
            "buffer" : 0, 
            "byteLength" : 336, 
            "byteOffset" : 368, 
            "target" : 34962
        }, 
        {
            "buffer" : 0, 
            "byteLength" : 448, 
            "byteOffset" : 704, 
            "target" : 34962
        }, 
        {
            "buffer" : 0, 
            "byteLength" : 224, 
            "byteOffset" : 1152, 
            "target" : 34962
        }, 
        {
            "buffer" : 0, 
            "byteLength" : 36, 
            "byteOffset" : 1376, 
            "target" : 34963
        }, 
        {
            "buffer" : 0, 
            "byteLength" : 288, 
            "byteOffset" : 1412, 
            "target" : 34962
        }, 
        {
            "buffer" : 0, 
            "byteLength" : 288, 
            "byteOffset" : 1700, 
            "target" : 34962
        }, 
        {
            "buffer" : 0, 
            "byteLength" : 96, 
            "byteOffset" : 1988, 
            "target" : 34963
        }, 
        {
            "buffer" : 0, 
            "byteLength" : 1080, 
            "byteOffset" : 2084, 
            "target" : 34962
        }, 
        {
            "buffer" : 0, 
            "byteLength" : 1080, 
            "byteOffset" : 3164, 
            "target" : 34962
        }, 
        {
            "buffer" : 0, 
            "byteLength" : 1440, 
            "byteOffset" : 4244, 
            "target" : 34962
        }, 
        {
            "buffer" : 0, 
            "byteLength" : 720, 
            "byteOffset" : 5684, 
            "target" : 34962
        }, 
        {
            "buffer" : 0, 
            "byteLength" : 1278, 
            "byteOffset" : 6404, 
            "target" : 34963
        }, 
        {
            "buffer" : 0, 
            "byteLength" : 6996, 
            "byteOffset" : 7684, 
            "target" : 34962
        }, 
        {
            "buffer" : 0, 
            "byteLength" : 6996, 
            "byteOffset" : 14680, 
            "target" : 34962
        }, 
        {
            "buffer" : 0, 
            "byteLength" : 9328, 
            "byteOffset" : 21676, 
            "target" : 34962
        }, 
        {
            "buffer" : 0, 
            "byteLength" : 4664, 
            "byteOffset" : 31004, 
            "target" : 34962
        }, 
        {
            "buffer" : 0, 
            "byteLength" : 30, 
            "byteOffset" : 35668, 
            "target" : 34963
        }, 
        {
            "buffer" : 0, 
            "byteLength" : 336, 
            "byteOffset" : 35700, 
            "target" : 34962
        }, 
        {
            "buffer" : 0, 
            "byteLength" : 336, 
            "byteOffset" : 36036, 
            "target" : 34962
        }, 
        {
            "buffer" : 0, 
            "byteLength" : 448, 
            "byteOffset" : 36372, 
            "target" : 34962
        }, 
        {
            "buffer" : 0, 
            "byteLength" : 224, 
            "byteOffset" : 36820, 
            "target" : 34962
        }, 
        {
            "buffer" : 0, 
            "byteLength" : 24, 
            "byteOffset" : 37044
        }, 
        {
            "buffer" : 0, 
            "byteLength" : 216, 
            "byteOffset" : 37068
        }, 
        {
            "buffer" : 0, 
            "byteLength" : 100, 
            "byteOffset" : 37284
        }, 
        {
            "buffer" : 0, 
            "byteLength" : 400, 
            "byteOffset" : 37384
        }
    ], 
    "buffers" : [
        {
            "byteLength" : 37784, 
            "uri" : "data:application/octet-stream;base64,"
        }
    ], 
    "cameras" : [
        {
            "name" : "Camera", 
            "perspective" : {
                "aspectRatio" : 1.7777777777777777, 
                "yfov" : 0.5033799372418416, 
                "zfar" : 100.0, 
                "znear" : 0.10000000149011612
            }, 
            "type" : "perspective"
        }
    ], 
    "materials" : [
        {
            "name" : "entry_3", 
            "pbrMetallicRoughness" : {
                "baseColorFactor" : [
                    0.6399999713897699, 
                    0.6399999713897699, 
                    0.6399999713897699, 
                    1.0
                ], 
                "metallicFactor" : 0.0
            }
        }
    ], 
    "meshes" : [
        {
            "name" : "Cube.000", 
            "primitives" : [
                {
                    "attributes" : {
                        "NORMAL" : 2, 
                        "POSITION" : 1, 
                        "TANGENT" : 3, 
                        "TEXCOORD_0" : 4
                    }, 
                    "indices" : 0, 
                    "material" : 0
                }
            ]
        }, 
        {
            "name" : "Cube.001", 
            "primitives" : [
                {
                    "attributes" : {
                        "NORMAL" : 7, 
                        "POSITION" : 6
                    }, 
                    "indices" : 5
                }
            ]
        }, 
        {
            "name" : "Cube.095", 
            "primitives" : [
                {
                    "attributes" : {
                        "NORMAL" : 10, 
                        "POSITION" : 9, 
                        "TANGENT" : 11, 
                        "TEXCOORD_0" : 12
                    }, 
                    "indices" : 8, 
                    "material" : 0
                }
            ]
        }, 
        {
            "name" : "Cube.094", 
            "primitives" : [
                {
                    "attributes" : {
                        "NORMAL" : 15, 
                        "POSITION" : 14, 
                        "TANGENT" : 16, 
                        "TEXCOORD_0" : 17
                    }, 
                    "indices" : 13, 
                    "material" : 0
                }
            ]
        }, 
        {
            "name" : "Cube.122", 
            "primitives" : [
                {
                    "attributes" : {
                        "NORMAL" : 20, 
                        "POSITION" : 19, 
                        "TANGENT" : 21, 
                        "TEXCOORD_0" : 22
                    }, 
                    "indices" : 18, 
                    "material" : 0
                }
            ]
        }
    ], 
    "nodes" : [
        {
            "camera" : 0, 
            "name" : "Correction_Camera", 
            "rotation" : [
                -0.7071067690849304, 
                -0.0, 
                0.0, 
                0.7071067690849304
            ]
        }, 
        {
            "children" : [
                0
            ], 
            "name" : "Camera", 
            "rotation" : [
                0.483536034822464, 
                0.33687159419059753, 
                -0.20870360732078552, 
                0.7804827094078064
            ], 
            "translation" : [
                7.481131553649902, 
                5.34366512298584, 
                6.5076398849487305
            ]
        }, 
        {
            "mesh" : 1, 
            "name" : "Cube", 
            "translation" : [
                -0.3742762506008148, 
                1.03740656375885, 
                -0.3532353937625885
            ]
        }, 
        {
            "children" : [
                4, 
                5, 
                6
            ], 
            "mesh" : 3, 
            "name" : "entry_3"
        }, 
        {
            "mesh" : 4, 
            "name" : "entry_3_2_000", 
            "translation" : [
                -1.7958149909973145, 
                0.6021547317504883, 
                0.7705364227294922
            ]
        }, 
        {
            "mesh" : 0, 
            "name" : "entry_3_2_001", 
            "translation" : [
                -0.20761920511722565, 
                0.6021547317504883, 
                1.1239149570465088
            ]
        }, 
        {
            "mesh" : 2, 
            "name" : "entry_3_door", 
            "translation" : [
                -0.8714936971664429, 
                0.9308761954307556, 
                0.9078007340431213
            ]
        }, 
        {
            "name" : "Hemi_002", 
            "rotation" : [
                -0.04535238444805145, 
                -0.045129161328077316, 
                -0.20676708221435547, 
                0.976296067237854
            ], 
            "scale" : [
                0.9999999403953552, 
                1.0, 
                0.9999999403953552
            ], 
            "translation" : [
                4.446503162384033, 
                2.058197021484375, 
                -4.558228015899658
            ]
        }, 
        {
            "name" : "Lamp", 
            "rotation" : [
                0.16907575726509094, 
                0.7558802962303162, 
                -0.27217137813568115, 
                0.570947527885437
            ], 
            "scale" : [
                1.0, 
                1.0, 
                0.9999999403953552
            ], 
            "translation" : [
                4.076245307922363, 
                5.903861999511719, 
                -1.0054539442062378
            ]
        }
    ], 
    "scene" : 1, 
    "scenes" : [
        {
            "name" : "Scene", 
            "nodes" : [
                3, 
                7, 
                8, 
                1
            ]
        }, 
        {
            "name" : "Scene.001", 
            "nodes" : [
                2
            ]
        }
    ]
}
