{
    "accessors" : [
        {
            "bufferView" : 0, 
            "componentType" : 5123, 
            "count" : 17484, 
            "max" : [
                6285
            ], 
            "min" : [
                0
            ], 
            "type" : "SCALAR"
        }, 
        {
            "bufferView" : 1, 
            "componentType" : 5126, 
            "count" : 6286, 
            "max" : [
                5.468901634216309, 
                0.48987144231796265, 
                0.05007011815905571
            ], 
            "min" : [
                -0.0845184326171875, 
                -0.15412861108779907, 
                -0.7570000290870667
            ], 
            "type" : "VEC3"
        }, 
        {
            "bufferView" : 2, 
            "componentType" : 5126, 
            "count" : 6286, 
            "max" : [
                1.0, 
                1.0, 
                1.0
            ], 
            "min" : [
                -1.0, 
                -1.0, 
                -1.0
            ], 
            "type" : "VEC3"
        }
    ], 
    "asset" : {
        "generator" : "Khronos Blender glTF 2.0 exporter", 
        "version" : "2.0"
    }, 
    "bufferViews" : [
        {
            "buffer" : 0, 
            "byteLength" : 34968, 
            "byteOffset" : 0, 
            "target" : 34963
        }, 
        {
            "buffer" : 0, 
            "byteLength" : 75432, 
            "byteOffset" : 34968, 
            "target" : 34962
        }, 
        {
            "buffer" : 0, 
            "byteLength" : 75432, 
            "byteOffset" : 110400, 
            "target" : 34962
        }
    ], 
    "buffers" : [
        {
            "byteLength" : 185832, 
            "uri" : "data:application/octet-stream;base64,"
        }
    ], 
    "meshes" : [
        {
            "name" : "CUText", 
            "primitives" : [
                {
                    "attributes" : {
                        "NORMAL" : 2, 
                        "POSITION" : 1
                    }, 
                    "indices" : 0
                }
            ]
        }
    ], 
    "nodes" : [
        {
            "mesh" : 0, 
            "name" : "hello", 
            "rotation" : [
                0.0, 
                0.7071068286895752, 
                -0.0, 
                0.7071067690849304
            ], 
            "translation" : [
                0.0, 
                0.23547381162643433, 
                2.5255515575408936
            ]
        }
    ], 
    "scene" : 0, 
    "scenes" : [
        {
            "name" : "Scene", 
            "nodes" : [
                0
            ]
        }
    ]
}
